<svg xmlns="http://www.w3.org/2000/svg" viewBox="0 0 64 64" width="64" height="64"><defs><linearGradient id="shine" x1="0" y1="0" x2="0" y2="1"><stop offset="0" stop-color="#fff" stop-opacity=".92"/><stop offset="1" stop-color="#fff" stop-opacity=".05"/></linearGradient><radialGradient id="caustic" cx=".5" cy="1" r=".75"><stop offset="0" stop-color="#fff" stop-opacity=".7"/><stop offset="1" stop-color="#fff" stop-opacity="0"/></radialGradient><radialGradient id="floor" cx=".5" cy=".5" r=".5"><stop offset="0" stop-color="#0b2a4a" stop-opacity=".3"/><stop offset="1" stop-color="#0b2a4a" stop-opacity="0"/></radialGradient><radialGradient id="body" cx="0.35" cy="0.3" r=".8"><stop offset="0" stop-color="#b9c9da"/><stop offset=".55" stop-color="#2e4c73"/><stop offset="1" stop-color="#0b1a2e"/></radialGradient><linearGradient id="flag" x1="0" y1="0" x2="0" y2="1"><stop offset="0" stop-color="#ffb3a3"/><stop offset="0.5" stop-color="#ff5a3c"/><stop offset="1" stop-color="#c8412a"/></linearGradient></defs><ellipse cx="32" cy="60.5" rx="19" ry="2.8" fill="url(#floor)"/><rect x="29" y="15" width="4" height="36" rx="2" fill="#23364d" transform="rotate(0 31 33)"/><rect x="29" y="15" width="4" height="36" rx="2" fill="#23364d" transform="rotate(22.5 31 33)"/><rect x="29" y="15" width="4" height="36" rx="2" fill="#23364d" transform="rotate(45 31 33)"/><rect x="29" y="15" width="4" height="36" rx="2" fill="#23364d" transform="rotate(67.5 31 33)"/><rect x="29" y="15" width="4" height="36" rx="2" fill="#23364d" transform="rotate(90 31 33)"/><rect x="29" y="15" width="4" height="36" rx="2" fill="#23364d" transform="rotate(112.5 31 33)"/><rect x="29" y="15" width="4" height="36" rx="2" fill="#23364d" transform="rotate(135 31 33)"/><rect x="29" y="15" width="4" height="36" rx="2" fill="#23364d" transform="rotate(157.5 31 33)"/><circle cx="31" cy="33" r="14" fill="url(#body)" stroke="#07111f" stroke-opacity=".6"/><ellipse cx="26.5" cy="27" rx="6.5" ry="4" fill="url(#shine)" transform="rotate(-25 26.5 27)"/><circle cx="36" cy="40" r="2" fill="#fff" fill-opacity=".35"/><path d="M44 8 V30" stroke="#5f6f80" stroke-width="2" stroke-linecap="round"/><path d="M45 8 L58 13 L45 19 Z" fill="url(#flag)" stroke="#8a2412" stroke-opacity=".5" stroke-width=".6"/><path d="M46 10 L53 12.5" stroke="#fff" stroke-opacity=".7" stroke-width="1.2" stroke-linecap="round"/></svg>