<svg xmlns="http://www.w3.org/2000/svg" viewBox="0 0 1600 1000" width="1600" height="1000" preserveAspectRatio="xMidYMid slice"><defs><filter id="bk" x="-20%" y="-20%" width="140%" height="140%"><feGaussianBlur stdDeviation="3"></feGaussianBlur></filter><filter id="bk2" x="-50%" y="-50%" width="200%" height="200%"><feGaussianBlur stdDeviation="18"></feGaussianBlur></filter><pattern id="ps" width="4" height="4" patternUnits="userSpaceOnUse"><rect width="4" height="2" fill="#ffffff"></rect><rect y="2" width="4" height="2" fill="#eef2f6"></rect></pattern><radialGradient id="glow" cx=".5" cy=".5" r=".5"><stop offset="0" stop-color="#bfe6ff" stop-opacity=".9"></stop><stop offset="1" stop-color="#bfe6ff" stop-opacity="0"></stop></radialGradient><radialGradient id="orb" cx=".4" cy=".3" r=".8"><stop offset="0" stop-color="#ffffff"></stop><stop offset=".6" stop-color="#e3f1fb"></stop><stop offset="1" stop-color="#9fcbe8"></stop></radialGradient></defs><rect width="1600" height="1000" fill="url(#ps)"></rect><circle cx="1180" cy="300" r="420" fill="url(#glow)"></circle><circle cx="300" cy="820" r="360" fill="url(#glow)" opacity=".6"></circle><g><circle cx="1180" cy="300" r="90" fill="url(#orb)" stroke="#9fcbe8" stroke-opacity=".7"></circle><ellipse cx="1158" cy="260" rx="45" ry="22" fill="#fff" opacity=".9"></ellipse></g><g><circle cx="1320" cy="470" r="40" fill="url(#orb)" stroke="#9fcbe8" stroke-opacity=".7"></circle><ellipse cx="1310" cy="452" rx="20" ry="10" fill="#fff" opacity=".9"></ellipse></g><g><circle cx="1040" cy="470" r="26" fill="url(#orb)" stroke="#9fcbe8" stroke-opacity=".7"></circle><ellipse cx="1034" cy="458" rx="13" ry="6" fill="#fff" opacity=".9"></ellipse></g><g><circle cx="300" cy="820" r="60" fill="url(#orb)" stroke="#9fcbe8" stroke-opacity=".7"></circle><ellipse cx="285" cy="793" rx="30" ry="15" fill="#fff" opacity=".9"></ellipse></g><g><circle cx="420" cy="720" r="22" fill="url(#orb)" stroke="#9fcbe8" stroke-opacity=".7"></circle><ellipse cx="414" cy="710" rx="11" ry="6" fill="#fff" opacity=".9"></ellipse></g><path d="M0 640 C 400 560, 900 720, 1600 600" fill="none" stroke="#7fc6ff" stroke-opacity=".4" stroke-width="2"></path></svg>