<svg xmlns="http://www.w3.org/2000/svg" viewBox="0 0 1600 1000" width="1600" height="1000" preserveAspectRatio="xMidYMid slice"><defs><radialGradient id="bg" cx=".5" cy=".4" r=".9"><stop offset="0" stop-color="#ffffff"></stop><stop offset=".6" stop-color="#e2ffd6"></stop><stop offset="1" stop-color="#8fe05a"></stop></radialGradient><linearGradient id="gl" x1="0" y1="0" x2="0" y2="1"><stop offset="0" stop-color="#fff" stop-opacity=".7"></stop><stop offset="1" stop-color="#fff" stop-opacity="0"></stop></linearGradient></defs><rect width="1600" height="1000" fill="url(#bg)"></rect><g transform="translate(80 880) rotate(-30) scale(1.6)"><path d="M0 0 C 60 -80, 180 -60, 170 20 C 160 90, 70 80, 80 30 C 88 0, 130 10, 120 35" fill="none" stroke="#45c93a" stroke-width="10" stroke-linecap="round"></path><path d="M0 0 C -40 50, -30 120, 30 140" fill="none" stroke="#45c93a" stroke-width="7" stroke-linecap="round"></path><circle cx="120" cy="35" r="10" fill="#45c93a"></circle></g><g transform="translate(1500 150) rotate(150) scale(1.4)"><path d="M0 0 C 60 -80, 180 -60, 170 20 C 160 90, 70 80, 80 30 C 88 0, 130 10, 120 35" fill="none" stroke="#3aa6f5" stroke-width="10" stroke-linecap="round"></path><path d="M0 0 C -40 50, -30 120, 30 140" fill="none" stroke="#3aa6f5" stroke-width="7" stroke-linecap="round"></path><circle cx="120" cy="35" r="10" fill="#3aa6f5"></circle></g><g transform="translate(1250 900) rotate(-70) scale(1.1)"><path d="M0 0 C 60 -80, 180 -60, 170 20 C 160 90, 70 80, 80 30 C 88 0, 130 10, 120 35" fill="none" stroke="#2cc6ea" stroke-width="10" stroke-linecap="round"></path><path d="M0 0 C -40 50, -30 120, 30 140" fill="none" stroke="#2cc6ea" stroke-width="7" stroke-linecap="round"></path><circle cx="120" cy="35" r="10" fill="#2cc6ea"></circle></g><g transform="translate(200 180) rotate(40) scale(1.0)"><path d="M0 0 C 60 -80, 180 -60, 170 20 C 160 90, 70 80, 80 30 C 88 0, 130 10, 120 35" fill="none" stroke="#9ceb66" stroke-width="10" stroke-linecap="round"></path><path d="M0 0 C -40 50, -30 120, 30 140" fill="none" stroke="#9ceb66" stroke-width="7" stroke-linecap="round"></path><circle cx="120" cy="35" r="10" fill="#9ceb66"></circle></g><ellipse cx="420" cy="778" rx="24" ry="42" fill="#ff7fb8" transform="rotate(0 420 820)"></ellipse><ellipse cx="420" cy="778" rx="24" ry="42" fill="#ff7fb8" transform="rotate(60 420 820)"></ellipse><ellipse cx="420" cy="778" rx="24" ry="42" fill="#ff7fb8" transform="rotate(120 420 820)"></ellipse><ellipse cx="420" cy="778" rx="24" ry="42" fill="#ff7fb8" transform="rotate(180 420 820)"></ellipse><ellipse cx="420" cy="778" rx="24" ry="42" fill="#ff7fb8" transform="rotate(240 420 820)"></ellipse><ellipse cx="420" cy="778" rx="24" ry="42" fill="#ff7fb8" transform="rotate(300 420 820)"></ellipse><circle cx="420" cy="820" r="21" fill="#ffd62e"></circle><ellipse cx="1300" cy="730" rx="18" ry="30" fill="#ffffff" transform="rotate(0 1300 760)"></ellipse><ellipse cx="1300" cy="730" rx="18" ry="30" fill="#ffffff" transform="rotate(60 1300 760)"></ellipse><ellipse cx="1300" cy="730" rx="18" ry="30" fill="#ffffff" transform="rotate(120 1300 760)"></ellipse><ellipse cx="1300" cy="730" rx="18" ry="30" fill="#ffffff" transform="rotate(180 1300 760)"></ellipse><ellipse cx="1300" cy="730" rx="18" ry="30" fill="#ffffff" transform="rotate(240 1300 760)"></ellipse><ellipse cx="1300" cy="730" rx="18" ry="30" fill="#ffffff" transform="rotate(300 1300 760)"></ellipse><circle cx="1300" cy="760" r="15" fill="#ffd62e"></circle><ellipse cx="1420" cy="306" rx="14" ry="24" fill="#ff9ad5" transform="rotate(0 1420 330)"></ellipse><ellipse cx="1420" cy="306" rx="14" ry="24" fill="#ff9ad5" transform="rotate(60 1420 330)"></ellipse><ellipse cx="1420" cy="306" rx="14" ry="24" fill="#ff9ad5" transform="rotate(120 1420 330)"></ellipse><ellipse cx="1420" cy="306" rx="14" ry="24" fill="#ff9ad5" transform="rotate(180 1420 330)"></ellipse><ellipse cx="1420" cy="306" rx="14" ry="24" fill="#ff9ad5" transform="rotate(240 1420 330)"></ellipse><ellipse cx="1420" cy="306" rx="14" ry="24" fill="#ff9ad5" transform="rotate(300 1420 330)"></ellipse><circle cx="1420" cy="330" r="12" fill="#ffd62e"></circle><ellipse cx="260" cy="338" rx="13" ry="22" fill="#ffffff" transform="rotate(0 260 360)"></ellipse><ellipse cx="260" cy="338" rx="13" ry="22" fill="#ffffff" transform="rotate(60 260 360)"></ellipse><ellipse cx="260" cy="338" rx="13" ry="22" fill="#ffffff" transform="rotate(120 260 360)"></ellipse><ellipse cx="260" cy="338" rx="13" ry="22" fill="#ffffff" transform="rotate(180 260 360)"></ellipse><ellipse cx="260" cy="338" rx="13" ry="22" fill="#ffffff" transform="rotate(240 260 360)"></ellipse><ellipse cx="260" cy="338" rx="13" ry="22" fill="#ffffff" transform="rotate(300 260 360)"></ellipse><circle cx="260" cy="360" r="11" fill="#ffd62e"></circle><path d="M0 1000 C 300 900, 500 950, 800 1000 Z M800 1000 C 1100 920, 1400 940, 1600 1000Z" fill="#45c93a" opacity=".6"></path><g transform="translate(700 300) scale(1.2)"><path d="M0 0 C-30 -40 -60 -30 -55 -5 C-50 12 -20 10 0 2 Z M0 0 C30 -40 60 -30 55 -5 C50 12 20 10 0 2Z M0 4 C-25 10 -30 35 -12 36 C-2 36 0 20 0 8Z M0 4 C25 10 30 35 12 36 C2 36 0 20 0 8Z" fill="#3aa6f5" opacity=".85"></path><rect x="-2" y="-12" width="4" height="40" rx="2" fill="#0b2a4a"></rect></g><g transform="translate(980 520) scale(0.8)"><path d="M0 0 C-30 -40 -60 -30 -55 -5 C-50 12 -20 10 0 2 Z M0 0 C30 -40 60 -30 55 -5 C50 12 20 10 0 2Z M0 4 C-25 10 -30 35 -12 36 C-2 36 0 20 0 8Z M0 4 C25 10 30 35 12 36 C2 36 0 20 0 8Z" fill="#2cc6ea" opacity=".85"></path><rect x="-2" y="-12" width="4" height="40" rx="2" fill="#0b2a4a"></rect></g><g transform="translate(560 560) scale(0.6)"><path d="M0 0 C-30 -40 -60 -30 -55 -5 C-50 12 -20 10 0 2 Z M0 0 C30 -40 60 -30 55 -5 C50 12 20 10 0 2Z M0 4 C-25 10 -30 35 -12 36 C-2 36 0 20 0 8Z M0 4 C25 10 30 35 12 36 C2 36 0 20 0 8Z" fill="#ff7fb8" opacity=".85"></path><rect x="-2" y="-12" width="4" height="40" rx="2" fill="#0b2a4a"></rect></g><rect width="1600" height="420" fill="url(#gl)" opacity=".4"></rect></svg>