<svg xmlns="http://www.w3.org/2000/svg" viewBox="0 0 64 64" width="64" height="64"><defs><linearGradient id="shine" x1="0" y1="0" x2="0" y2="1"><stop offset="0" stop-color="#fff" stop-opacity=".92"></stop><stop offset="1" stop-color="#fff" stop-opacity=".05"></stop></linearGradient><radialGradient id="caustic" cx=".5" cy="1" r=".75"><stop offset="0" stop-color="#fff" stop-opacity=".7"></stop><stop offset="1" stop-color="#fff" stop-opacity="0"></stop></radialGradient><radialGradient id="floor" cx=".5" cy=".5" r=".5"><stop offset="0" stop-color="#0b2a4a" stop-opacity=".3"></stop><stop offset="1" stop-color="#0b2a4a" stop-opacity="0"></stop></radialGradient><radialGradient id="body" cx=".5" cy=".25" r=".8"><stop offset="0" stop-color="#e6fbff"></stop><stop offset=".55" stop-color="#35c3e6"></stop><stop offset="1" stop-color="#0a6fa8"></stop></radialGradient><clipPath id="clip"><g><path d="M31 30 C20 8 4 10 6 22 C8 32 20 34 31 32 Z" fill="#000"></path><path d="M33 30 C44 8 60 10 58 22 C56 32 44 34 33 32 Z" fill="#000"></path><path d="M31 33 C20 36 12 46 18 52 C24 56 30 44 31 36 Z" fill="#000"></path><path d="M33 33 C44 36 52 46 46 52 C40 56 34 44 33 36 Z" fill="#000"></path></g></clipPath></defs><ellipse cx="32" cy="60.5" rx="19" ry="2.8" fill="url(#floor)"></ellipse><g><path d="M31 30 C20 8 4 10 6 22 C8 32 20 34 31 32 Z" fill="url(#body)"></path><path d="M33 30 C44 8 60 10 58 22 C56 32 44 34 33 32 Z" fill="url(#body)"></path><path d="M31 33 C20 36 12 46 18 52 C24 56 30 44 31 36 Z" fill="url(#body)"></path><path d="M33 33 C44 36 52 46 46 52 C40 56 34 44 33 36 Z" fill="url(#body)"></path></g><g clip-path="url(#clip)"><ellipse cx="32" cy="52" rx="20" ry="4" fill="url(#caustic)"></ellipse><ellipse cx="32" cy="14" rx="26" ry="6" fill="url(#shine)"></ellipse></g><g><path d="M31 30 C20 8 4 10 6 22 C8 32 20 34 31 32 Z" fill="none" stroke="#0a5a8a" stroke-opacity=".55" stroke-width="1"></path><path d="M33 30 C44 8 60 10 58 22 C56 32 44 34 33 32 Z" fill="none" stroke="#0a5a8a" stroke-opacity=".55" stroke-width="1"></path><path d="M31 33 C20 36 12 46 18 52 C24 56 30 44 31 36 Z" fill="none" stroke="#0a5a8a" stroke-opacity=".55" stroke-width="1"></path><path d="M33 33 C44 36 52 46 46 52 C40 56 34 44 33 36 Z" fill="none" stroke="#0a5a8a" stroke-opacity=".55" stroke-width="1"></path></g><rect x="30.5" y="20" width="3" height="30" rx="1.5" fill="#0b2a4a"></rect><path d="M31 21 Q28 13 24 11M33 21 Q36 13 40 11" stroke="#0b2a4a" stroke-width="1.2" fill="none"></path><circle cx="16" cy="20" r="3" fill="#fff" opacity=".7"></circle><circle cx="48" cy="20" r="3" fill="#fff" opacity=".7"></circle></svg>