<svg xmlns="http://www.w3.org/2000/svg" viewBox="0 0 64 64" width="64" height="64"><defs><linearGradient id="shine" x1="0" y1="0" x2="0" y2="1"><stop offset="0" stop-color="#fff" stop-opacity=".92"></stop><stop offset="1" stop-color="#fff" stop-opacity=".05"></stop></linearGradient><radialGradient id="caustic" cx=".5" cy="1" r=".75"><stop offset="0" stop-color="#fff" stop-opacity=".75"></stop><stop offset="1" stop-color="#fff" stop-opacity="0"></stop></radialGradient><radialGradient id="floor" cx=".5" cy=".5" r=".5"><stop offset="0" stop-color="#0b2a4a" stop-opacity=".3"></stop><stop offset="1" stop-color="#0b2a4a" stop-opacity="0"></stop></radialGradient><radialGradient id="body" cx=".6" cy=".25" r=".8"><stop offset="0" stop-color="#e2ffc8"></stop><stop offset=".55" stop-color="#4fc93a"></stop><stop offset="1" stop-color="#1d7a1f"></stop></radialGradient><clipPath id="clip"><path d="M10 52C10 26 28 10 54 10c0 26-16 44-44 42z" fill="#000"></path></clipPath></defs><ellipse cx="32" cy="60.5" rx="19" ry="2.8" fill="url(#floor)"></ellipse><path d="M10 52C10 26 28 10 54 10c0 26-16 44-44 42z" fill="url(#body)"></path><g clip-path="url(#clip)"><path d="M12 50C22 38 34 26 50 14" stroke="#eaffd8" stroke-opacity=".8" stroke-width="1.6" fill="none" stroke-linecap="round"></path><path d="M24 38l-2-10M32 30l-1-9M40 22l0-6M24 38l10 1M32 30l9 1" stroke="#eaffd8" stroke-opacity=".5" stroke-width="1" fill="none" stroke-linecap="round"></path><ellipse cx="22" cy="50" rx="14" ry="7" fill="url(#caustic)"></ellipse><ellipse cx="40" cy="16" rx="16" ry="7" fill="url(#shine)"></ellipse></g><path d="M10 52C10 26 28 10 54 10c0 26-16 44-44 42z" fill="none" stroke="#1b6a1d" stroke-opacity=".55" stroke-width="1"></path><circle cx="38" cy="36" r="4.5" fill="#e8fcff" fill-opacity=".55" stroke="#ffffff" stroke-opacity=".9" stroke-width=".8"></circle><ellipse cx="36.6" cy="34.4" rx="1.6" ry="1.1" fill="#fff"></ellipse></svg>