<svg xmlns="http://www.w3.org/2000/svg" viewBox="0 0 64 64" width="64" height="64"><defs><linearGradient id="shine" x1="0" y1="0" x2="0" y2="1"><stop offset="0" stop-color="#fff" stop-opacity=".92"></stop><stop offset="1" stop-color="#fff" stop-opacity=".05"></stop></linearGradient><radialGradient id="caustic" cx=".5" cy="1" r=".75"><stop offset="0" stop-color="#fff" stop-opacity=".7"></stop><stop offset="1" stop-color="#fff" stop-opacity="0"></stop></radialGradient><radialGradient id="floor" cx=".5" cy=".5" r=".5"><stop offset="0" stop-color="#0b2a4a" stop-opacity=".3"></stop><stop offset="1" stop-color="#0b2a4a" stop-opacity="0"></stop></radialGradient><radialGradient id="body" cx=".36" cy=".28" r=".8"><stop offset="0" stop-color="#fffbd6"></stop><stop offset=".55" stop-color="#ffd62e"></stop><stop offset="1" stop-color="#f08a12"></stop></radialGradient><clipPath id="clip"><rect x="12" y="26" width="40" height="30" rx="6" fill="#000"></rect></clipPath></defs><ellipse cx="32" cy="60.5" rx="19" ry="2.8" fill="url(#floor)"></ellipse><path d="M20 27 V19 A12 12 0 0 1 44 19 V27" fill="none" stroke="#9aa7b4" stroke-width="6"></path><rect x="12" y="26" width="40" height="30" rx="6" fill="url(#body)"></rect><g clip-path="url(#clip)"><ellipse cx="32" cy="56" rx="16" ry="5" fill="url(#caustic)"></ellipse><ellipse cx="30" cy="30" rx="18" ry="5" fill="url(#shine)"></ellipse></g><rect x="12" y="26" width="40" height="30" rx="6" fill="none" stroke="#c86a0a" stroke-opacity=".55" stroke-width="1"></rect><circle cx="32" cy="38" r="4" fill="#6a3d00"></circle><rect x="30" y="39" width="4" height="9" rx="2" fill="#6a3d00"></rect></svg>