<svg xmlns="http://www.w3.org/2000/svg" viewBox="0 0 64 64" width="64" height="64"><defs><linearGradient id="shine" x1="0" y1="0" x2="0" y2="1"><stop offset="0" stop-color="#fff" stop-opacity=".92"></stop><stop offset="1" stop-color="#fff" stop-opacity=".05"></stop></linearGradient><radialGradient id="caustic" cx=".5" cy="1" r=".75"><stop offset="0" stop-color="#fff" stop-opacity=".7"></stop><stop offset="1" stop-color="#fff" stop-opacity="0"></stop></radialGradient><radialGradient id="floor" cx=".5" cy=".5" r=".5"><stop offset="0" stop-color="#0b2a4a" stop-opacity=".3"></stop><stop offset="1" stop-color="#0b2a4a" stop-opacity="0"></stop></radialGradient><radialGradient id="body" cx=".36" cy=".28" r=".8"><stop offset="0" stop-color="#ffffff"></stop><stop offset=".55" stop-color="#d5dde5"></stop><stop offset="1" stop-color="#7b8896"></stop></radialGradient><linearGradient id="scr" x1="0" y1="0" x2="0" y2="1"><stop offset="0" stop-color="#1f8fe6"></stop><stop offset=".7" stop-color="#bfe6ff"></stop><stop offset=".7" stop-color="#45c93a"></stop><stop offset="1" stop-color="#157a1f"></stop></linearGradient><clipPath id="clip"><rect x="6" y="8" width="52" height="36" rx="4" fill="#000"></rect></clipPath></defs><ellipse cx="32" cy="60.5" rx="19" ry="2.8" fill="url(#floor)"></ellipse><path d="M26 44 L38 44 L40 52 L24 52 Z" fill="#8e9aa6"></path><rect x="18" y="51" width="28" height="4" rx="2" fill="#aab4be"></rect><rect x="6" y="8" width="52" height="36" rx="4" fill="url(#body)"></rect><g clip-path="url(#clip)"><rect x="9" y="11" width="46" height="30" rx="1.5" fill="url(#scr)"></rect><ellipse cx="32" cy="44" rx="20" ry="3" fill="url(#caustic)"></ellipse><ellipse cx="32" cy="12" rx="30" ry="7" fill="url(#shine)"></ellipse></g><rect x="6" y="8" width="52" height="36" rx="4" fill="none" stroke="#4b5a69" stroke-opacity=".55" stroke-width="1"></rect></svg>