<svg xmlns="http://www.w3.org/2000/svg" viewBox="0 0 64 64" width="64" height="64"><defs><linearGradient id="shine" x1="0" y1="0" x2="0" y2="1"><stop offset="0" stop-color="#fff" stop-opacity=".92"></stop><stop offset="1" stop-color="#fff" stop-opacity=".05"></stop></linearGradient><radialGradient id="caustic" cx=".5" cy="1" r=".75"><stop offset="0" stop-color="#fff" stop-opacity=".75"></stop><stop offset="1" stop-color="#fff" stop-opacity="0"></stop></radialGradient><radialGradient id="floor" cx=".5" cy=".5" r=".5"><stop offset="0" stop-color="#0b2a4a" stop-opacity=".3"></stop><stop offset="1" stop-color="#0b2a4a" stop-opacity="0"></stop></radialGradient><radialGradient id="body" cx=".5" cy=".2" r=".8"><stop offset="0" stop-color="#d9f2ff"></stop><stop offset=".55" stop-color="#3aa6f5"></stop><stop offset="1" stop-color="#0b4a94"></stop></radialGradient><clipPath id="clip"><path d="M26 12l24-6v34a8 6 0 1 1-4-5V16l-16 4v26a8 6 0 1 1-4-5z" fill="#000"></path></clipPath></defs><ellipse cx="32" cy="60.5" rx="19" ry="2.8" fill="url(#floor)"></ellipse><path d="M26 12l24-6v34a8 6 0 1 1-4-5V16l-16 4v26a8 6 0 1 1-4-5z" fill="url(#body)"></path><g clip-path="url(#clip)"><ellipse cx="20" cy="52" rx="9" ry="4" fill="url(#caustic)"></ellipse><ellipse cx="38" cy="12" rx="14" ry="5" fill="url(#shine)"></ellipse></g><path d="M26 12l24-6v34a8 6 0 1 1-4-5V16l-16 4v26a8 6 0 1 1-4-5z" fill="none" stroke="#0b3d73" stroke-opacity=".55" stroke-width="1"></path></svg>