<svg xmlns="http://www.w3.org/2000/svg" viewBox="0 0 64 64" width="64" height="64"><defs><linearGradient id="shine" x1="0" y1="0" x2="0" y2="1"><stop offset="0" stop-color="#fff" stop-opacity=".92"></stop><stop offset="1" stop-color="#fff" stop-opacity=".05"></stop></linearGradient><radialGradient id="caustic" cx=".5" cy="1" r=".75"><stop offset="0" stop-color="#fff" stop-opacity=".7"></stop><stop offset="1" stop-color="#fff" stop-opacity="0"></stop></radialGradient><radialGradient id="floor" cx=".5" cy=".5" r=".5"><stop offset="0" stop-color="#0b2a4a" stop-opacity=".3"></stop><stop offset="1" stop-color="#0b2a4a" stop-opacity="0"></stop></radialGradient><radialGradient id="body" cx=".36" cy=".28" r=".8"><stop offset="0" stop-color="#ffe0d8"></stop><stop offset=".55" stop-color="#ef5a3c"></stop><stop offset="1" stop-color="#a8250f"></stop></radialGradient><clipPath id="clip"><path d="M32 58 C24 46 14 36 14 24 A18 18 0 0 1 50 24 C50 36 40 46 32 58 Z" fill="#000"></path></clipPath></defs><ellipse cx="32" cy="60.5" rx="19" ry="2.8" fill="url(#floor)"></ellipse><path d="M32 58 C24 46 14 36 14 24 A18 18 0 0 1 50 24 C50 36 40 46 32 58 Z" fill="url(#body)"></path><g clip-path="url(#clip)"><ellipse cx="32" cy="40" rx="12" ry="6" fill="url(#caustic)"></ellipse><ellipse cx="28" cy="14" rx="10" ry="7" fill="url(#shine)"></ellipse></g><path d="M32 58 C24 46 14 36 14 24 A18 18 0 0 1 50 24 C50 36 40 46 32 58 Z" fill="none" stroke="#8a1f0c" stroke-opacity=".55" stroke-width="1"></path><circle cx="32" cy="24" r="7" fill="#fff"></circle></svg>