<svg xmlns="http://www.w3.org/2000/svg" viewBox="0 0 64 64" width="64" height="64"><defs><linearGradient id="shine" x1="0" y1="0" x2="0" y2="1"><stop offset="0" stop-color="#fff" stop-opacity=".92"></stop><stop offset="1" stop-color="#fff" stop-opacity=".05"></stop></linearGradient><radialGradient id="caustic" cx=".5" cy="1" r=".75"><stop offset="0" stop-color="#fff" stop-opacity=".7"></stop><stop offset="1" stop-color="#fff" stop-opacity="0"></stop></radialGradient><radialGradient id="floor" cx=".5" cy=".5" r=".5"><stop offset="0" stop-color="#0b2a4a" stop-opacity=".3"></stop><stop offset="1" stop-color="#0b2a4a" stop-opacity="0"></stop></radialGradient><radialGradient id="body" cx=".4" cy=".2" r=".8"><stop offset="0" stop-color="#ffffff"></stop><stop offset=".55" stop-color="#eef6ff"></stop><stop offset="1" stop-color="#a9cdee"></stop></radialGradient><clipPath id="clip"><path d="M18 40a10 10 0 0 1-1-20 13 13 0 0 1 25-4 9 9 0 0 1 11 9 8 8 0 0 1-2 15z" fill="#000"></path></clipPath></defs><ellipse cx="32" cy="60.5" rx="19" ry="2.8" fill="url(#floor)"></ellipse><path d="M18 40a10 10 0 0 1-1-20 13 13 0 0 1 25-4 9 9 0 0 1 11 9 8 8 0 0 1-2 15z" fill="url(#body)"></path><g clip-path="url(#clip)"><ellipse cx="34" cy="40" rx="16" ry="4" fill="url(#caustic)"></ellipse><ellipse cx="32" cy="16" rx="16" ry="6" fill="url(#shine)"></ellipse></g><path d="M18 40a10 10 0 0 1-1-20 13 13 0 0 1 25-4 9 9 0 0 1 11 9 8 8 0 0 1-2 15z" fill="none" stroke="#5b89b4" stroke-opacity=".55" stroke-width="1"></path><g stroke="#7fc6ff" stroke-width="1.6" stroke-linecap="round"><path d="M20 46v8M16.5 48l7 4M16.5 52l7 -4"></path></g><g stroke="#7fc6ff" stroke-width="1.6" stroke-linecap="round"><path d="M32 49v8M28.5 51l7 4M28.5 55l7 -4"></path></g><g stroke="#7fc6ff" stroke-width="1.6" stroke-linecap="round"><path d="M44 46v8M40.5 48l7 4M40.5 52l7 -4"></path></g></svg>